An evil old man, Andrés, is the owner of an old building, where very poor people live. Mr. Andrés wants to demolish the building, and gives the people a few hours to evacuate it. But they will confront the old man, saying that they won't leave their homes. Andrés will look for help and he finds it in Pedro, a tough, strong and rude man, but not quite clever, who will be hired by Andrés in order to bullying the people in the building and make them leave. Meanwhile, Pedro will work in a butcher's shop, where also works Paloma, Andres's wife, an attractive woman who starts to feel attracted to Pedro. One night, Pedro is making a tour by the building, threatening people, and he will fight with a man who dares to face up with him. But the man is killed accidentally by Pedro, who escapes from the place and hides with Paloma, now his lover. Meche, the murdered man's daughter, is a charming and pretty girl, who will help Pedro to scape from the angry neighbors. Pedro falls in love with Meche, and he offers his home to her. Meche starts to have feelings about the naive but "brutal" man, without knowing that he's the murderer of her father.  

   General
      Complete name : El Bruto.avi
      Format : AVI
      Format/Info : Audio Video Interleave
      File size : 1.08 GiB
      Duration : 1h 20mn
      Overall bit rate : 1 924 Kbps
      Writing application : VirtualDubMod 1.5.4.1 (build 2178/release)
      Writing library : VirtualDubMod build 2178/release
   Video #0
      ID : 0
      Format : MPEG-4 Visual
      Format profile : AdvancedSimple@L5
      Format settings, BVOP : Yes
      Format settings, QPel : No
      Format settings, GMC : No warppoints
      Format settings, Matrix : Custom
      Codec ID : XVID
      Codec ID/Hint : XviD
      Duration : 1h 20mn
      Bit rate : 1 755 Kbps
      Width : 640 pixels
      Height : 480 pixels
      Display aspect ratio : 4:3
      Frame rate : 23.976 fps
      Resolution : 24 bits
      Colorimetry : 4:2:0
      Scan type : Progressive
      Bits/(Pixel*Frame) : 0.238
      Stream size : 1 013 MiB (91%)
      Writing library : XviD 1.2.0.dev47 (UTC 2006-11-01)
   Audio #1
      ID : 1
      Format : MPEG Audio
      Format version : Version 1
      Format profile : Layer 3
      Codec ID : 55
      Codec ID/Hint : MP3
      Duration : 1h 20mn
      Bit rate mode : Variable
      Bit rate : 156 Kbps
      Nominal bit rate : 192 Kbps
      Channel(s) : 2 channels
      Sampling rate : 48.0 KHz
      Resolution : 16 bits
      Stream size : 89.8 MiB (8%)
      Alignment : Aligned on interleaves
      Interleave, duration : 24 ms (0.58 video frame)
      Interleave, preload duration : 488 ms
      Writing library : LAME3.97 
      Encoding settings : -m j -V 4 -q 2 -lowpass 18.6 --abr 192

IMDB: tt0044453

Spanish audio; English and Portuguese subtitles

Posted at KG by kakala

Bunuel - El Bruto [1953]